<?xml version="1.0" encoding="utf-8"?>
<!-- Svg Vector Icons : http://www.onlinewebfonts.com/icon -->
<!DOCTYPE svg PUBLIC "-//W3C//DTD SVG 1.1//EN" "http://www.w3.org/Graphics/SVG/1.1/DTD/svg11.dtd">
<svg version="1.1" xmlns="http://www.w3.org/2000/svg" xmlns:xlink="http://www.w3.org/1999/xlink" x="0px" y="0px" viewBox="0 0 256 256" enable-background="new 0 0 256 256" xml:space="preserve">
<metadata> Svg Vector Icons : http://www.onlinewebfonts.com/icon </metadata>
<g><g><path fill="#000000" d="M128,246c-65.2,0-118-52.8-118-118C10,62.8,62.8,10,128,10c65.2,0,118,52.8,118,118C246,193.2,193.2,246,128,246z M120.1,93.6l-6.8-12.7c-20.8,9.7-40.4,32.8-40.4,62.6c0,18.4,11.4,31.8,25.4,31.8c14.7,0,22.2-11.4,22.2-21.8c0-12-8.1-21.4-20.2-21.4c-3.6,0-7.2,1-9.1,2.7C91.1,120,102.5,102.6,120.1,93.6z M182.6,93.6l-6.8-12.7c-20.8,9.7-40.7,32.8-40.7,62.6c0,18.4,11.7,31.8,25.7,31.8c14.7,0,22.2-11.4,22.2-21.8c0-12-8.1-21.4-20.5-21.4c-3.6,0-6.8,1-8.8,2.7C153.7,120,165.1,102.6,182.6,93.6z"/></g></g>
</svg>